# xmcd
#
# Track frame offsets: 
#        182
#        20785
#        42785
#        60255
#        63700
#        88972
#        109082
#        128492
#        150757
#        173740
#        194545
#        208445
#        228662
#
# Disc length: 3323 seconds
#
# Revision: 1
# Processed by: cddbd v1.5.2PL0 Copyright (c) Steve Scherf et al.
# Submitted via: ExactAudioCopy v1.0b3
#
DISCID=b20cf90d
DTITLE=The Gablz - The Gablz
DYEAR=1997
DGENRE=R&B
TTITLE0=Shookie Shookie (Gimme Some Of Your Sweet Cookie)
TTITLE1=Who's Gonna Love You
TTITLE2=It's Ladies Night At Chocolate City (Remix)
TTITLE3=Thanks To The Most High (Interlude)
TTITLE4=Forgive Me
TTITLE5=Bon Appetit
TTITLE6=It's About That Time
TTITLE7=Do You Want Me
TTITLE8=Work It Out
TTITLE9=Milk
TTITLE10=Can't Get Enough
TTITLE11=Don't Let Money Change You
TTITLE12=Chills
EXTD=
EXTT0=
EXTT1=
EXTT2=
EXTT3=
EXTT4=
EXTT5=
EXTT6=
EXTT7=
EXTT8=
EXTT9=
EXTT10=
EXTT11=
EXTT12=
PLAYORDER=
